<?xml version="1.0" encoding="utf-8"?>
<!-- Generator: Adobe Illustrator 18.1.1, SVG Export Plug-In . SVG Version: 6.00 Build 0)  -->
<svg version="1.1" id="Layer_1" xmlns="http://www.w3.org/2000/svg" xmlns:xlink="http://www.w3.org/1999/xlink" x="0px" y="0px"
	 viewBox="0 0 690.7 325.6" enable-background="new 0 0 690.7 325.6" xml:space="preserve">
<g>
	<polygon fill="#1C4792" points="86.6,224.9 129.7,200 172.9,224.9 172.9,274.8 	"/>
	<polygon fill="#0E7CC1" points="172.9,274.8 172.9,224.9 259.2,175.1 259.2,224.9 	"/>
	<polygon fill="#1C4792" points="259.2,125.3 216,150.2 172.9,125.3 172.9,75.4 	"/>
	<polygon fill="#0E7CC1" points="172.9,75.4 172.9,125.3 86.6,175.1 86.6,125.3 	"/>
	<polygon fill="#00ADD4" points="172.9,175.1 129.7,150.2 86.6,175.1 129.9,200.1 172.9,224.9 216.2,200.1 259.2,175.1 216,150.2 	
		"/>
	<g>
		<path fill="#1C4792" d="M298.4,166c2.5,7.9,13,9.6,20.6,9.6c8.1,0,20.6-2.5,20.6-12c0-8.2-9.9-8.9-20.4-9.8
			c-13.1-1-27.1-2.3-27.1-16.4c0-12.5,14.4-18.1,26-18.1c9.9,0,22.4,2.4,26.3,13.2c1.4,3.8-5,5.5-6.4,2.3c-2.8-7.2-13-8.4-19.8-8.4
			c-6.3,0-18.7,2.6-18.7,11.2c0,8.2,9.5,9.1,20.5,9.9c13,1.1,26.9,1.8,26.9,16c0,14.5-16.2,18.9-27.9,18.9
			c-9.7,0-24.4-3.3-27.6-14.7C290.3,163.5,297.6,162.1,298.4,166z"/>
		<path fill="#1C4792" d="M379.2,132.7c4.3,0,4.3,6,0,6h-10.3v25.6c0,5.4,0.9,11.1,7.3,11.1c1.4,0,3.5-0.5,4.5-1
			c4-2.3,7.1,3.3,2.8,5.7c-2.4,1.3-4.7,1.6-7.3,1.6c-11.4,0-14.1-8.3-14.1-17.3v-25.6h-6.3c-4.5,0-4.2-6,0-6h6.3v-11
			c0-4.5,6.8-4.5,6.8,0v11H379.2z"/>
		<path fill="#1C4792" d="M404.9,133.9c3.1-1.4,6.5-1.9,10.1-1.8c5.4,0.1,11.6,1.8,15,7.4v-3.6c0-2,1.2-3.4,3.4-3.4
			c2.1,0,3.5,1.4,3.5,3.4V178c0,2.1-1.4,3.4-3.5,3.4c-2.2,0-3.4-1.3-3.4-3.4v-4.5c-2.7,5.5-9.8,8.6-15.3,8.6
			c-4.5,0-9.7-1.2-13.6-4.1c-7.2-4.9-10.9-13-10.6-22.3C390.6,146.2,395.9,137.3,404.9,133.9L404.9,133.9z M430,160.7v-7.5
			c0-9.4-6.5-14.2-15.1-14.6c-6.7-0.1-13.5,3.5-16.2,10.1c-0.9,2-1.3,4.5-1.4,7c-0.2,6.2,1.8,11.8,6.9,16.1c2.8,2.2,6.3,3.3,9.8,3.6
			C422.7,175.5,429.5,170.2,430,160.7z"/>
		<path fill="#1C4792" d="M457.5,140.6c3-6.3,8.7-8.1,14.1-8.1c2.2,0,3.6,1.1,3.6,3.3c0,2.1-1.4,3.2-3.6,3.2
			c-9.8,0-13.9,7.8-13.9,17.3v21.4c0,2-1.6,3.3-3.4,3.3c-2.1,0-3.5-1.3-3.5-3.3v-42c0-4.2,6.7-4.5,6.7,0V140.6z"/>
		<path fill="#1C4792" d="M491.8,178.1c0,1.8-1.5,3.2-3.4,3.2c-2.1,0-3.5-1.4-3.5-3.2v-56.8c0-1.8,1.4-3.2,3.5-3.2
			c1.9,0,3.4,1.4,3.4,3.2V178.1z"/>
		<path fill="#1C4792" d="M534.1,132.9c10.7,2.9,17.3,11.7,17.5,23.8v-0.1c0.2,2.1-0.8,4.4-4.6,4.4h-37.4
			c1.2,7.8,7.9,14.2,17.3,14.2c4.4,0,8.9-1.1,12.6-4c3.3-3,8.2,0.9,4.5,4.6c-4.4,4.1-10.7,5.8-16.9,5.7c-7.4,0-14.8-2.8-19.2-8.4
			c-10.2-13.5-5.8-35.2,11.8-40.2C524.2,131.6,529.3,131.7,534.1,132.9L534.1,132.9z M509.2,155.2H545c-0.7-8.1-5.6-14.2-13-16.1
			h0.1c-3.1-0.9-7-0.9-10.2,0.1C514.3,141.1,509.8,147.5,509.2,155.2z"/>
		<path fill="#1C4792" d="M560.1,137.2c-3-4,2.7-7.1,5.3-4.1l15.5,19.1l16.8-19.1c2.5-3.3,8.1,0.4,5.6,3.7l-17.7,19.7l17.9,19.7
			c2.9,3.3-2.2,7.6-5.2,4.2L581,160.7l-16.2,19.7c-3.3,3.7-8.3-0.9-5-4.5l16.5-19.3L560.1,137.2z"/>
	</g>
	<g>
		<path fill="#00ADD4" d="M294.5,215.9v7.5c0,1.8-2.8,1.8-2.8,0v-22.2c0-0.8,0.6-1.4,1.4-1.4h9.2c6.7,0,10.1,3.8,10.1,8.3
			c0,3.9-2.1,6.7-6.9,7.5l6.3,6.8c1.5,1.5-0.7,3.2-1.9,1.9l-7.8-8.5H294.5z M294.5,213.4h7.8c5.1,0,7.3-2.4,7.2-5.3
			c0-3.2-2.7-5.7-7.2-5.7h-7.8V213.4z"/>
		<path fill="#00ADD4" d="M328.5,204.9c4.4,1.2,7.1,4.7,7.1,9.7v0c0.1,0.8-0.3,1.8-1.9,1.8h-15.3c0.5,3.2,3.2,5.8,7.1,5.8
			c1.8,0,3.6-0.5,5.1-1.6c1.4-1.2,3.4,0.3,1.9,1.9c-1.8,1.7-4.4,2.4-6.9,2.3c-3,0-6-1.2-7.8-3.4c-4.2-5.5-2.4-14.4,4.8-16.4
			C324.5,204.3,326.6,204.4,328.5,204.9L328.5,204.9z M318.4,214H333c-0.3-3.3-2.3-5.8-5.3-6.6h0c-1.3-0.3-2.9-0.3-4.2,0
			C320.5,208.2,318.7,210.8,318.4,214z"/>
		<path fill="#00ADD4" d="M345.3,205.3c1.3-0.6,2.7-0.8,4.1-0.7c2.2,0,4.7,0.7,6.1,3v-1.5c0-0.8,0.5-1.4,1.4-1.4
			c0.8,0,1.4,0.6,1.4,1.4v17.1c0,0.8-0.6,1.4-1.4,1.4c-0.9,0-1.4-0.5-1.4-1.4v-1.9c-1.1,2.2-4,3.5-6.3,3.5c-1.9,0-3.9-0.5-5.6-1.7
			c-2.9-2-4.4-5.3-4.3-9.1C339.5,210.3,341.7,206.7,345.3,205.3L345.3,205.3z M355.6,216.2v-3.1c0-3.8-2.7-5.8-6.1-5.9
			c-2.7,0-5.5,1.4-6.6,4.1c-0.3,0.8-0.5,1.9-0.6,2.9c-0.1,2.5,0.7,4.8,2.8,6.6c1.2,0.9,2.5,1.4,4,1.5
			C352.6,222.3,355.4,220.1,355.6,216.2z"/>
		<path fill="#00ADD4" d="M366.9,223.3c0,0.7-0.6,1.3-1.4,1.3c-0.8,0-1.4-0.6-1.4-1.3v-23.2c0-0.7,0.6-1.3,1.4-1.3
			c0.8,0,1.4,0.6,1.4,1.3V223.3z"/>
		<path fill="#00ADD4" d="M385.9,221.9h15.3c1.6,0,1.9,2.5,0,2.5h-16.3c-1.1,0-1.8-0.8-1.8-1.7v-21.2c0-0.9,0.7-1.7,1.8-1.7h16.3
			c1.7,0,1.6,2.5,0,2.5h-15.3v8.7h14.5c1.5,0,1.6,2.5,0,2.5h-14.5V221.9z"/>
		<path fill="#00ADD4" d="M408.6,219.6c0.4,1.7,3.4,2.6,6.2,2.6c1.9,0,5.9-0.8,5.9-3.5c0-2.5-2.9-2.6-6.1-2.8
			c-4.2-0.4-8.6-0.7-8.6-5.5c0-4.1,4.7-5.9,8.4-5.9c3,0,7.1,0.5,8.5,4c0.5,1.7-2.1,2.5-2.6,1c-0.8-2.2-4.1-2.4-5.8-2.4
			c-2.2,0-5.6,1-5.6,3.4c0,2.5,2.9,2.4,5.9,2.7c4.2,0.4,8.8,0.8,8.8,5.6c0,4.9-5.6,6.1-8.8,6.1c-3.2,0-8.1-0.8-8.9-4.7
			C405.5,218.5,408.3,217.7,408.6,219.6z"/>
		<path fill="#00ADD4" d="M436.6,204.8c1.7,0,1.7,2.4,0,2.4h-4.2v10.4c0,2.2,0.3,4.5,3,4.5c0.6,0,1.4-0.2,1.8-0.4
			c1.6-0.9,2.9,1.4,1.2,2.3c-1,0.5-1.9,0.7-3,0.7c-4.6,0-5.8-3.4-5.8-7.1v-10.4h-2.5c-1.8,0-1.7-2.4,0-2.4h2.5v-4.5
			c0-1.9,2.8-1.8,2.8,0v4.5H436.6z"/>
		<path fill="#00ADD4" d="M446.9,205.3c1.3-0.6,2.7-0.8,4.1-0.7c2.2,0,4.7,0.7,6.1,3v-1.5c0-0.8,0.5-1.4,1.4-1.4
			c0.8,0,1.4,0.6,1.4,1.4v17.1c0,0.8-0.6,1.4-1.4,1.4c-0.9,0-1.4-0.5-1.4-1.4v-1.9c-1.1,2.2-4,3.5-6.3,3.5c-1.9,0-3.9-0.5-5.6-1.7
			c-2.9-2-4.4-5.3-4.3-9.1C441,210.3,443.2,206.7,446.9,205.3L446.9,205.3z M457.1,216.2v-3.1c0-3.8-2.7-5.8-6.1-5.9
			c-2.7,0-5.5,1.4-6.6,4.1c-0.3,0.8-0.5,1.9-0.6,2.9c-0.1,2.5,0.7,4.8,2.8,6.6c1.2,0.9,2.5,1.4,4,1.5
			C454.1,222.3,456.9,220.1,457.1,216.2z"/>
		<path fill="#00ADD4" d="M474.4,204.8c1.7,0,1.7,2.4,0,2.4h-4.2v10.4c0,2.2,0.3,4.5,3,4.5c0.6,0,1.4-0.2,1.8-0.4
			c1.6-0.9,2.9,1.4,1.2,2.3c-1,0.5-1.9,0.7-3,0.7c-4.6,0-5.8-3.4-5.8-7.1v-10.4h-2.5c-1.8,0-1.7-2.4,0-2.4h2.5v-4.5
			c0-1.9,2.8-1.8,2.8,0v4.5H474.4z"/>
		<path fill="#00ADD4" d="M491.8,204.9c4.4,1.2,7.1,4.7,7.1,9.7v0c0.1,0.8-0.3,1.8-1.9,1.8h-15.3c0.5,3.2,3.2,5.8,7.1,5.8
			c1.8,0,3.6-0.5,5.1-1.6c1.4-1.2,3.4,0.3,1.9,1.9c-1.8,1.7-4.4,2.4-6.9,2.3c-3,0-6-1.2-7.8-3.4c-4.2-5.5-2.4-14.4,4.8-16.4
			C487.8,204.3,489.9,204.4,491.8,204.9L491.8,204.9z M481.7,214h14.6c-0.3-3.3-2.3-5.8-5.3-6.6h0c-1.3-0.3-2.9-0.3-4.2,0
			C483.7,208.2,481.9,210.8,481.7,214z"/>
	</g>
</g>
</svg>
