<?xml version="1.0" encoding="utf-8"?>
<!-- Generator: Adobe Illustrator 18.1.1, SVG Export Plug-In . SVG Version: 6.00 Build 0)  -->
<svg version="1.1" id="Layer_1" xmlns="http://www.w3.org/2000/svg" xmlns:xlink="http://www.w3.org/1999/xlink" x="0px" y="0px"
	 viewBox="0 0 155.9 240.9"  xml:space="preserve">
<g>
	<path fill="#FFF" d="M45.4,198.5c-7.8,0-15.7-6.1-15.7-19.8V61.4c0-13.7,7.9-19.8,15.7-19.8c4.3,0,8.8,1.7,13.4,5l74.3,54.3
		c6.7,4.9,10.5,11.8,10.5,19.1c0,7.3-3.8,14.2-10.5,19.1l-74.3,54.3C54.2,196.8,49.7,198.5,45.4,198.5z M45.4,53.6
		c-3.4,0-3.7,6-3.7,7.8v117.3c0,1.8,0.3,7.8,3.7,7.8c1,0,3.1-0.4,6.3-2.7l74.3-54.3c3.6-2.6,5.6-6,5.6-9.4c0-3.4-2-6.8-5.6-9.4
		L51.7,56.3C48.5,53.9,46.3,53.6,45.4,53.6z"/>
	<path fill="#FFF" d="M45.4,198.5c-7.8,0-15.7-6.1-15.7-19.8V61.4c0-13.7,7.9-19.8,15.7-19.8c4.3,0,8.8,1.7,13.4,5l74.3,54.3
		c6.7,4.9,10.5,11.8,10.5,19.1c0,7.3-3.8,14.2-10.5,19.1l-74.3,54.3C54.2,196.8,49.7,198.5,45.4,198.5z M45.4,53.6
		c-3.4,0-3.7,6-3.7,7.8v117.3c0,1.8,0.3,7.8,3.7,7.8c1,0,3.1-0.4,6.3-2.7l74.3-54.3c3.6-2.6,5.6-6,5.6-9.4c0-3.4-2-6.8-5.6-9.4
		L51.7,56.3C48.5,53.9,46.3,53.6,45.4,53.6z"/>
</g>
</svg>
